<?xml version="1.0" encoding="iso-8859-1"?>
<!DOCTYPE svg PUBLIC "-//W3C//DTD SVG 1.1//EN" "http://www.w3.org/Graphics/SVG/1.1/DTD/svg11.dtd">
<svg xmlns="http://www.w3.org/2000/svg" xmlns:xlink="http://www.w3.org/1999/xlink" version="1.1" viewBox="0 0 296.666 296.666" enable-background="new 0 0 296.666 296.666" width="512px" height="512px">
  <g>
    <path d="m155.031,199.864v-84.364c0-6.903-5.597-12.5-12.5-12.5s-12.5,5.597-12.5,12.5v84.364c-6.318,4.1-10.5,11.21-10.5,19.302 0,12.703 10.297,23 23,23 12.703,0 23-10.297 23-23 0-8.092-4.182-15.202-10.5-19.302z" fill="#2f8c96"/>
    <path d="m217.469,111.333h-26.396v-25h26.396c6.903,0 12.5-5.597 12.5-12.5s-5.597-12.5-12.5-12.5h-26.396v-12.792c-0.001-26.766-21.776-48.541-48.542-48.541s-48.541,21.775-48.541,48.541v114.046c-17.201,14.347-27.293,35.658-27.293,58.246 0,41.814 34.019,75.833 75.834,75.833 41.814,0 75.833-34.019 75.833-75.833 0-22.588-10.091-43.9-27.292-58.246v-26.254h26.396c6.903,0 12.5-5.597 12.5-12.5s-5.596-12.5-12.499-12.5zm-24.105,109.5c0,28.029-22.804,50.833-50.833,50.833-28.03,0-50.834-22.804-50.834-50.833 0-16.655 8.193-32.28 21.916-41.797 3.368-2.335 5.377-6.173 5.377-10.271v-120.224c0-12.98 10.561-23.541 23.541-23.541s23.541,10.561 23.541,23.541v120.224c0,4.099 2.009,7.937 5.377,10.271 13.723,9.517 21.915,25.142 21.915,41.797z" fill="#2f8c96"/>
  </g>
</svg>
