<?xml version="1.0" encoding="iso-8859-1"?>
<!-- Generator: Adobe Illustrator 19.0.0, SVG Export Plug-In . SVG Version: 6.00 Build 0)  -->
<svg xmlns="http://www.w3.org/2000/svg" xmlns:xlink="http://www.w3.org/1999/xlink" version="1.1" id="Capa_1" x="0px" y="0px" viewBox="0 0 490 490" style="enable-background:new 0 0 490 490;" xml:space="preserve" width="512px" height="512px">
<g>
	<path d="M71.06,490h347.866v-36.485c34.608-0.909,62.476-29.314,62.476-64.138v-46.7c0-34.824-27.868-63.229-62.476-64.138v-85.623   c0-45.881-27.232-85.49-66.303-103.364C351.086,39.918,310.454,0,260.686,0h-31.373c-49.765,0-90.396,39.914-91.936,89.546   C98.299,107.416,71.06,147.03,71.06,192.917v85.623c-34.593,0.909-62.461,29.314-62.461,64.138v46.7   c0,34.823,27.868,63.228,62.461,64.138V490z M159.421,398.05c0-47.194,38.386-85.579,85.58-85.579s85.58,38.386,85.58,85.579   c0,23.151-9.375,45.24-25.881,61.325H185.303C168.801,443.29,159.421,421.208,159.421,398.05z M450.777,342.677v46.7   c0,17.926-14.142,32.621-31.851,33.513V309.164C436.635,310.056,450.777,324.751,450.777,342.677z M229.314,30.625h31.373   c29.76,0,54.625,21.438,60.206,49.783c-4.876-0.649-9.847-0.989-14.896-0.989H183.989c-5.044,0-10.01,0.339-14.881,0.987   C174.69,52.062,199.554,30.625,229.314,30.625z M101.685,192.917c0-45.698,36.921-82.873,82.305-82.873h122.006   c45.384,0,82.305,37.175,82.305,82.873v266.458h-44.607c11.327-18.225,17.511-39.418,17.511-61.325   c0-64.076-52.128-116.204-116.204-116.204S128.796,333.974,128.796,398.05c0,21.908,6.179,43.103,17.503,61.325h-44.614V192.917z    M39.223,389.377v-46.7c0-17.926,14.128-32.621,31.836-33.513V422.89C53.351,421.999,39.223,407.303,39.223,389.377z" fill="#2f8c96"/>
	<rect x="152.617" y="179.937" width="184.767" height="30.625" fill="#2f8c96"/>
</g>
<g>
</g>
<g>
</g>
<g>
</g>
<g>
</g>
<g>
</g>
<g>
</g>
<g>
</g>
<g>
</g>
<g>
</g>
<g>
</g>
<g>
</g>
<g>
</g>
<g>
</g>
<g>
</g>
<g>
</g>
</svg>
