<?xml version="1.0" encoding="iso-8859-1"?>
<!-- Generator: Adobe Illustrator 18.0.0, SVG Export Plug-In . SVG Version: 6.00 Build 0)  -->
<!DOCTYPE svg PUBLIC "-//W3C//DTD SVG 1.1//EN" "http://www.w3.org/Graphics/SVG/1.1/DTD/svg11.dtd">
<svg xmlns="http://www.w3.org/2000/svg" xmlns:xlink="http://www.w3.org/1999/xlink" version="1.1" id="Capa_1" x="0px" y="0px" viewBox="0 0 297 297" style="enable-background:new 0 0 297 297;" xml:space="preserve" width="512px" height="512px">
<g>
	<path d="M80.126,68.977c-1.832,0-3.634,0.747-4.928,2.041c-1.294,1.294-2.041,3.097-2.041,4.928c0,1.832,0.747,3.633,2.041,4.928   c1.294,1.294,3.097,2.041,4.928,2.041s3.633-0.747,4.928-2.041c1.294-1.305,2.041-3.097,2.041-4.928   c0-1.832-0.747-3.634-2.041-4.928C83.759,69.724,81.957,68.977,80.126,68.977z" fill="#2f8c96"/>
	<path d="M274.101,137.424h-20.649c-8.408-10.033-21.022-16.427-35.105-16.427h-69.194c-13.861,0-25.162-11.383-25.385-25.463   c0.168-1.91,0.661-8.339,0.661-18.095c0-1.88-0.117-3.708-0.318-5.494c9.814-5.611,29.347-18.454,47.074-48.711   c2.05-3.497,1.773-7.888-0.698-11.101c-2.471-3.214-6.644-4.61-10.55-3.525c-2.566,0.711-62.794,17.416-87.469,25.931   c-16.844,2.06-24.051,7.626-34.137,16.472c-6.653,5.833-14.932,13.093-31.483,21.865c-7.449,3.949-6.951,13.406-6.763,16.966   c0.239,4.531,1.11,10.004,2.455,15.41c2.506,10.074,6.66,21.637,16.634,21.637c27.933,0,27.933,6.469,27.933,16.261v135.319   c0,5.498,4.458,9.956,9.956,9.956h35.842c4.564,0,8.543-3.103,9.656-7.528L115.6,229.02h79.046l13.049,52.195   c1.107,4.432,5.09,7.541,9.658,7.541h36.836c5.498,0,9.956-4.458,9.956-9.956V166.795c0-3.242-0.344-6.405-0.988-9.458h10.944   c1.619,0,2.987,1.368,2.987,2.987v36.588c0,5.498,4.458,9.956,9.956,9.956S297,202.41,297,196.912v-36.588   C297,147.696,286.728,137.424,274.101,137.424z M149.154,140.909h41.816v68.199h-62.225v-73.13   C134.883,139.124,141.814,140.909,149.154,140.909z M117.531,52.669c-2.11-3.465-4.582-6.52-7.245-9.113   c9.255-2.751,18.87-5.536,27.422-7.984C129.971,44.064,122.807,49.343,117.531,52.669z M19.906,88.443   c4.219-2.344,7.927-4.599,11.235-6.757c3.358,6.204,6.831,15.843,4.086,26.255c-3.692-0.522-7.519-0.793-11.378-0.902   C22.013,102.305,20.112,93.366,19.906,88.443z M98.182,216.636l-13.041,51.876H67.018V143.149c0-17.282-7.117-26.448-17.397-31.227   c4.352-16.16-1.382-30.524-6.315-39.036c3.161-2.532,5.806-4.848,8.152-6.905c10.001-8.769,14.158-12.414,38.246-12.435   c2.814,0.578,14.814,8.164,14.814,23.894c0,10.398-0.608,16.613-0.614,16.666c-0.034,0.334-0.051,0.67-0.051,1.006   c0,7.5,1.804,14.578,4.979,20.833v93.163h-0.996C103.273,209.108,99.294,212.21,98.182,216.636z M210.882,213.831v-72.922h7.466   c14.273,0,25.886,11.612,25.886,25.886v102.049h-19.107L210.882,213.831z" fill="#2f8c96"/>
</g>
<g>
</g>
<g>
</g>
<g>
</g>
<g>
</g>
<g>
</g>
<g>
</g>
<g>
</g>
<g>
</g>
<g>
</g>
<g>
</g>
<g>
</g>
<g>
</g>
<g>
</g>
<g>
</g>
<g>
</g>
</svg>
